:SAMPLES-PER-SECOND 30
:FULLY-SPECIFIED
:DEGREES
210
root  3.70014 40.4005 3.38633 155.504 -79.9596 -155.813
RightUpLeg  -7.26137 6.632 -13.8254
RightLeg  25.648 33.8402 16.1263
RightFoot  6.01778 -3.87351 25.2645
RightToes  -4.65663e-010 0 -3.6325e-017
Spine  4.44633 0.740206 3.33885
Spine1  14.9818 0.738098 -1.62722
HEad  37.8536 1.05164 -5.1475
LeftShoulder1  6.5799 -8.63102 -47.2779
LeftArm  -37.1503 28.9683 -18.5477
LeftForeArm  167.24 -77.9586 -134.801
LeftHand  -0.244104 0.0205437 5.32207
RightShoulder  5.57095 8.52498 40.1649
RightArm  -22.5604 -22.7808 25.7361
RightForeArm  -54.5315 69.2224 36.0909
RightHand  -11.6832 21.7858 -47.3146
LeftUpLeg  -7.9179 6.70772 0.631138
LeftLeg  16.3291 19.8128 2.54617
LeftFoot  -8.17491 -0.198757 8.95504
LeftToes  4.18335e-011 1.59304e-011 3.38507e-012
211
root  3.71001 40.318 3.41155 157.264 -80.3179 -158.079
RightUpLeg  -8.79185 6.59047 -14.6066
RightLeg  29.4805 33.8343 18.6904
RightFoot  7.25416 -4.38927 26.668
RightToes  -4.65663e-010 0 -3.6325e-017
Spine  4.74311 0.578814 2.50239
Spine1  14.9547 0.379024 -1.25788
HEad  38.3263 0.473216 -5.32222
LeftShoulder1  6.52349 -8.56189 -47.1376
LeftArm  -37.3205 28.373 -18.515
LeftForeArm  167.769 -77.7943 -135.544
LeftHand  -0.244104 0.0205437 5.32207
RightShoulder  5.53351 8.47218 40.062
RightArm  -22.2791 -23.285 25.5291
RightForeArm  -56.4857 68.1952 34.0129
RightHand  -11.5887 21.673 -47.1501
LeftUpLeg  -7.70882 6.71785 0.155331
LeftLeg  16.9508 19.7021 2.6071
LeftFoot  -8.53263 -0.167102 8.89581
LeftToes  4.18335e-011 1.59304e-011 3.38507e-012
212
root  3.71921 40.212 3.44258 159.958 -80.673 -161.507
RightUpLeg  -10.6756 6.88824 -15.5163
RightLeg  34.0242 33.1634 21.5515
RightFoot  9.11954 -5.11843 28.1832
RightToes  -4.65663e-010 0 -3.6325e-017
Spine  5.13651 0.419531 1.61303
Spine1  15.0929 0.0257242 -0.950549
HEad  38.6974 0.170754 -5.82327
LeftShoulder1  6.53316 -8.57873 -47.1419
LeftArm  -37.4504 27.7742 -18.3582
LeftForeArm  168.591 -77.5732 -136.533
LeftHand  -0.244104 0.0205437 5.32207
RightShoulder  5.46298 8.36572 39.8915
RightArm  -22.0664 -23.7093 25.3858
RightForeArm  -57.8511 67.2582 32.3168
RightHand  -11.431 21.4498 -46.9264
LeftUpLeg  -7.30591 6.85412 -0.435938
LeftLeg  17.6863 19.5789 2.62081
LeftFoot  -9.01155 -0.127943 8.9484
LeftToes  4.18335e-011 1.59304e-011 3.38507e-012
213
root  3.73626 40.0925 3.48182 163.349 -81.1989 -165.732
RightUpLeg  -12.8292 7.35321 -16.4572
RightLeg  38.6776 31.52 24.0436
RightFoot  11.8518 -6.1196 29.613
RightToes  -4.65663e-010 0 -3.6325e-017
Spine  5.67295 0.195174 0.698513
Spine1  15.1433 -0.395251 -0.65117
HEad  38.9619 0.0697985 -6.36893
LeftShoulder1  6.5589 -8.6168 -47.1804
LeftArm  -37.4469 27.1039 -18.0762
LeftForeArm  169.228 -77.3927 -137.305
LeftHand  -0.244104 0.0205437 5.32207
RightShoulder  5.40129 8.27308 39.7378
RightArm  -22.132 -24.3095 25.2864
RightForeArm  -58.5534 66.6292 31.2722
RightHand  -11.2308 21.129 -46.6955
LeftUpLeg  -6.84568 7.03646 -1.19779
LeftLeg  18.4355 19.3179 2.60233
LeftFoot  -9.49119 -0.0914921 9.19229
LeftToes  4.18335e-011 1.59304e-011 3.38507e-012
214
root  3.76979 39.9714 3.53514 167.666 -81.7839 -170.886
RightUpLeg  -15.2314 7.7297 -17.3018
RightLeg  42.9704 28.7714 25.5061
RightFoot  15.6813 -7.46195 30.829
RightToes  -4.65663e-010 0 -3.6325e-017
Spine  6.41554 -0.0781959 -0.161036
Spine1  14.9524 -0.850318 -0.362782
HEad  39.0173 0.0839385 -6.81806
LeftShoulder1  6.57561 -8.62679 -47.2632
LeftArm  -37.4136 26.3757 -17.7119
LeftForeArm  169.48 -77.2939 -137.696
LeftHand  -0.244104 0.0205437 5.32207
RightShoulder  5.34248 8.1943 39.5533
RightArm  -22.2246 -25.0848 25.2054
RightForeArm  -58.6197 66.2603 30.6944
RightHand  -11.0426 20.8286 -46.4712
LeftUpLeg  -6.3939 7.16026 -2.1074
LeftLeg  19.1081 19.0771 2.60115
LeftFoot  -9.88345 -0.0617273 9.51127
LeftToes  4.18335e-011 1.59304e-011 3.38507e-012
215
root  3.81774 39.8583 3.60653 172.978 -82.1317 -177.027
RightUpLeg  -17.7741 7.91723 -17.9089
RightLeg  46.5919 24.9396 25.3483
RightFoot  20.6253 -9.03803 31.3706
RightToes  -4.65663e-010 0 -3.6325e-017
Spine  7.32298 -0.32981 -0.828599
Spine1  14.6702 -1.21504 -0.211078
HEad  38.7686 0.2162 -7.18938
LeftShoulder1  6.59879 -8.63835 -47.3869
LeftArm  -37.4461 25.7033 -17.3105
LeftForeArm  169.413 -77.2367 -137.877
LeftHand  -0.244104 0.0205437 5.32207
RightShoulder  5.28033 8.11711 39.333
RightArm  -22.1302 -25.8327 25.1587
RightForeArm  -58.4611 65.9609 30.2421
RightHand  -10.9 20.6205 -46.2661
LeftUpLeg  -5.88447 7.2663 -3.05096
LeftLeg  19.6154 19.0535 2.57895
LeftFoot  -10.1977 -0.036159 9.75852
LeftToes  4.18335e-011 1.59304e-011 3.38507e-012
216
root  3.87165 39.7726 3.70166 178.12 -82.1453 177.083
RightUpLeg  -20.2695 7.87279 -18.082
RightLeg  49.4057 20.3243 23.2721
RightFoot  26.4775 -10.323 30.127
RightToes  -4.65663e-010 0 -3.6325e-017
Spine  8.22756 -0.556382 -1.06829
Spine1  14.4503 -1.42672 -0.302803
HEad  38.346 0.498817 -7.50264
LeftShoulder1  6.6254 -8.67227 -47.447
LeftArm  -37.5051 25.1962 -16.9894
LeftForeArm  169.067 -77.2237 -137.85
LeftHand  -0.244104 0.0205437 5.32207
RightShoulder  5.23477 8.06453 39.1545
RightArm  -21.9952 -26.4684 25.1899
RightForeArm  -58.5353 65.6283 29.7501
RightHand  -10.7663 20.4308 -46.0614
LeftUpLeg  -5.30406 7.45265 -3.87601
LeftLeg  19.7994 19.2059 2.42715
LeftFoot  -10.3863 -0.0208816 9.99318
LeftToes  4.18335e-011 1.59304e-011 3.38507e-012
217
root  3.92539 39.7376 3.82629 -178.256 -82.02 172.961
RightUpLeg  -22.5685 7.43653 -17.6228
RightLeg  51.5326 15.3951 19.4659
RightFoot  32.7268 -10.3795 25.9247
RightToes  -4.65663e-010 0 -3.6325e-017
Spine  8.93953 -0.817351 -0.713577
Spine1  14.2753 -1.54824 -0.537821
HEad  37.993 0.848062 -7.75548
LeftShoulder1  6.64261 -8.70899 -47.4275
LeftArm  -37.488 24.8608 -16.8557
LeftForeArm  168.556 -77.3042 -137.471
LeftHand  -0.244104 0.0205437 5.32207
RightShoulder  5.21063 8.04121 39.042
RightArm  -21.975 -27.0422 25.2839
RightForeArm  -58.7988 65.2733 29.2393
RightHand  -10.5789 20.1418 -45.8063
LeftUpLeg  -4.76156 7.62614 -4.49861
LeftLeg  19.4953 19.4203 2.10311
LeftFoot  -10.3115 -0.0308855 10.3178
LeftToes  4.18335e-011 1.59304e-011 3.38507e-012
218
root  3.97337 39.7547 3.97136 -176.123 -81.8908 170.659
RightUpLeg  -24.5119 6.41487 -16.4703
RightLeg  53.1502 10.3588 14.1336
RightFoot  38.2429 -8.46787 18.8367
RightToes  -4.65663e-010 0 -3.6325e-017
Spine  9.33501 -1.09967 0.0662942
Spine1  14.1654 -1.65425 -0.686251
HEad  37.7754 1.10149 -7.97846
LeftShoulder1  6.66721 -8.74699 -47.4565
LeftArm  -37.3446 24.6639 -16.8684
LeftForeArm  168.154 -77.442 -136.908
LeftHand  -0.244104 0.0205437 5.32207
RightShoulder  5.19262 8.02591 38.95
RightArm  -21.9314 -27.5421 25.3563
RightForeArm  -58.9123 64.9131 28.7388
RightHand  -10.3347 19.7466 -45.4945
LeftUpLeg  -4.32856 7.58952 -4.93524
LeftLeg  18.6934 19.7486 1.63358
LeftFoot  -9.96018 -0.0680275 10.5984
LeftToes  4.18335e-011 1.59304e-011 3.38507e-012
219
root  4.00999 39.8083 4.11492 -174.937 -81.6818 169.541
RightUpLeg  -25.7721 4.68366 -14.7274
RightLeg  54.2348 5.04978 7.1171
RightFoot  41.3247 -4.90424 10.479
RightToes  -4.65663e-010 0 -3.6325e-017
Spine  9.41151 -1.3089 0.925553
Spine1  14.2264 -1.73806 -0.618663
HEad  37.6086 1.21969 -8.21207
LeftShoulder1  6.71082 -8.79477 -47.584
LeftArm  -37.0896 24.6196 -16.9159
LeftForeArm  167.906 -77.5426 -136.498
LeftHand  -0.244104 0.0205437 5.32207
RightShoulder  5.18047 8.02101 38.8676
RightArm  -21.6767 -27.8886 25.3689
RightForeArm  -58.8836 64.5323 28.2278
RightHand  -10.1021 19.368 -45.1913
LeftUpLeg  -3.92019 7.37381 -5.1934
LeftLeg  17.4784 20.2359 0.987089
LeftFoot  -9.47578 -0.116991 10.6696
LeftToes  4.18335e-011 1.59304e-011 3.38507e-012
220
root  4.03659 39.8965 4.24217 -174.846 -81.3867 169.65
RightUpLeg  -25.9652 2.18461 -12.5845
RightLeg  54.5958 -0.614427 -1.30576
RightFoot  40.548 -1.15943 2.9574
RightToes  -4.65663e-010 0 -3.6325e-017
Spine  9.2722 -1.40742 1.78756
Spine1  14.4294 -1.76507 -0.373251
HEad  37.4863 1.30037 -8.45294
LeftShoulder1  6.74296 -8.82045 -47.7145
LeftArm  -36.7659 24.7261 -16.9857
LeftForeArm  167.461 -77.615 -136.142
LeftHand  -0.244104 0.0205437 5.32207
RightShoulder  5.18129 8.03 38.841
RightArm  -21.2758 -28.0631 25.3811
RightForeArm  -59.0678 64.1228 27.6946
RightHand  -9.94422 19.1238 -44.9581
LeftUpLeg  -3.43889 7.19962 -5.21615
LeftLeg  15.8729 20.7008 0.128973
LeftFoot  -8.90529 -0.174453 10.697
LeftToes  4.18335e-011 1.59304e-011 3.38507e-012
221
root  4.05668 40.0235 4.34866 -176.22 -81.1276 171.38
RightUpLeg  -24.9998 -0.903712 -10.2849
RightLeg  54.0455 -6.24043 -9.51502
RightFoot  35.9204 1.30182 -2.38453
RightToes  -4.65663e-010 0 -3.6325e-017
Spine  9.00147 -1.42668 2.83684
Spine1  14.617 -1.7116 -0.0745645
HEad  37.4425 1.36283 -8.63392
LeftShoulder1  6.73921 -8.79407 -47.7908
LeftArm  -36.4604 24.913 -17.1545
LeftForeArm  166.668 -77.7445 -135.492
LeftHand  -0.244104 0.0205437 5.32207
RightShoulder  5.18618 8.02388 38.9043
RightArm  -20.9327 -28.1063 25.4719
RightForeArm  -59.5868 63.7072 27.1697
RightHand  -9.85436 19.0039 -44.791
LeftUpLeg  -2.96545 7.09943 -5.00437
LeftLeg  13.9553 21.0047 -0.776035
LeftFoot  -8.16881 -0.255336 10.9575
LeftToes  4.18335e-011 1.59304e-011 3.38507e-012
222
root  4.06341 40.1642 4.42747 -178.469 -80.8231 174.182
RightUpLeg  -23.1568 -3.93234 -8.16415
RightLeg  52.4184 -11.0631 -15.3353
RightFoot  28.942 2.25 -5.55935
RightToes  -4.65663e-010 0 -3.6325e-017
Spine  8.59704 -1.33913 4.06074
Spine1  14.7463 -1.50705 0.10562
HEad  37.3662 1.31414 -8.65169
LeftShoulder1  6.72098 -8.74847 -47.8387
LeftArm  -36.3032 25.1621 -17.4464
LeftForeArm  165.92 -77.9158 -134.675
LeftHand  -0.244104 0.0205437 5.32207
RightShoulder  5.19308 8.00546 39.0301
RightArm  -20.7045 -28.0312 25.699
RightForeArm  -60.1193 63.3209 26.6975
RightHand  -9.76667 18.889 -44.623
LeftUpLeg  -2.70188 6.86585 -4.71474
LeftLeg  12.0616 21.4171 -1.43159
LeftFoot  -7.3546 -0.352006 11.3506
LeftToes  4.18335e-011 1.59304e-011 3.38507e-012
223
root  4.04678 40.2809 4.47466 179.699 -80.1657 176.716
RightUpLeg  -20.7775 -5.9667 -6.63247
RightLeg  49.5944 -14.331 -17.6361
RightFoot  21.369 2.18706 -6.9078
RightToes  -4.65663e-010 0 -3.6325e-017
Spine  8.06312 -1.06495 5.21349
Spine1  14.8921 -1.05174 0.000631395
HEad  37.1072 1.17338 -8.48303
LeftShoulder1  6.71516 -8.732 -47.8616
LeftArm  -36.3593 25.5695 -17.7361
LeftForeArm  165.514 -78.0333 -134.122
LeftHand  -0.244104 0.0205437 5.32207
RightShoulder  5.22061 8.03806 39.1363
RightArm  -20.448 -27.8025 26.1091
RightForeArm  -60.266 62.9795 26.2946
RightHand  -9.61948 18.6777 -44.3672
LeftUpLeg  -2.72585 6.40576 -4.4922
LeftLeg  10.521 22.3425 -1.77673
LeftFoot  -6.70723 -0.428001 11.5402
LeftToes  4.18335e-011 1.59304e-011 3.38507e-012
224
root  4.01129 40.3648 4.50114 178.671 -79.0786 178.511
RightUpLeg  -18.0831 -6.35452 -5.98159
RightLeg  45.6786 -15.5984 -16.7241
RightFoot  14.487 1.34154 -5.3346
RightToes  -4.65663e-010 0 -3.6325e-017
Spine  7.51262 -0.629771 6.22496
Spine1  15.0163 -0.360094 -0.453749
HEad  36.6834 1.11618 -8.28527
LeftShoulder1  6.7233 -8.74482 -47.8698
LeftArm  -36.5408 26.1726 -17.825
LeftForeArm  165.184 -78.0966 -133.794
LeftHand  -0.244104 0.0205437 5.32207
RightShoulder  5.27199 8.14298 39.1687
RightArm  -20.0031 -27.36 26.6583
RightForeArm  -59.9306 62.6753 25.9468
RightHand  -9.41202 18.3687 -44.0174
LeftUpLeg  -2.98762 5.93542 -4.27991
LeftLeg  9.43575 23.6692 -1.98272
LeftFoot  -6.32639 -0.465235 11.4558
LeftToes  4.18335e-011 1.59304e-011 3.38507e-012
